<?xml version="1.0" standalone="no"?>
<!DOCTYPE svg PUBLIC "-//W3C//DTD SVG 20010904//EN"
 "http://www.w3.org/TR/2001/REC-SVG-20010904/DTD/svg10.dtd">
<svg version="1.0" xmlns="http://www.w3.org/2000/svg"
 width="1061.000000pt" height="621.000000pt" viewBox="0 0 1061.000000 621.000000"
 preserveAspectRatio="xMidYMid meet">

<g transform="translate(0.000000,621.000000) scale(0.100000,-0.100000)"
fill="#000000" stroke="none">
<path d="M5550 260 c0 -165 3 -249 10 -245 6 4 10 97 10 245 0 148 -4 241 -10
245 -7 4 -10 -80 -10 -245z"/>
<path d="M1672 288 l2 -183 6 165 5 165 108 -145 c59 -80 114 -154 122 -165
12 -17 14 3 12 165 l-1 185 -6 -165 -5 -165 -119 163 c-65 89 -120 162 -122
162 -2 0 -3 -82 -2 -182z"/>
<path d="M2040 345 c0 -98 4 -135 17 -162 45 -96 181 -96 226 0 13 27 17 64
17 162 0 81 -4 124 -10 120 -6 -4 -10 -61 -10 -139 0 -119 -2 -136 -20 -159
-43 -55 -140 -53 -180 2 -18 26 -20 44 -20 159 0 77 -4 133 -10 137 -6 4 -10
-39 -10 -120z"/>
<path d="M2380 460 c0 -6 27 -10 60 -10 l60 0 3 -172 3 -173 2 173 2 172 59 0
c33 0 63 5 66 10 4 6 -40 10 -124 10 -81 0 -131 -4 -131 -10z"/>
<path d="M2718 464 c-12 -12 -10 -344 2 -344 6 0 10 32 10 75 l0 75 84 0 c76
0 86 -2 100 -22 9 -12 16 -37 16 -56 0 -38 15 -72 32 -72 9 0 9 3 0 12 -7 7
-12 25 -12 40 0 37 -25 97 -43 104 -11 4 -7 12 14 34 39 39 40 96 3 131 -22
21 -37 24 -112 27 -48 2 -90 0 -94 -4z m201 -40 c29 -37 26 -70 -8 -105 -27
-27 -35 -29 -105 -29 l-76 0 0 80 0 80 84 0 c79 0 86 -2 105 -26z"/>
<path d="M3057 463 c-11 -11 -8 -343 3 -343 6 0 10 65 10 175 0 96 -1 175 -3
175 -2 0 -7 -3 -10 -7z"/>
<path d="M3255 456 c-57 -26 -105 -101 -105 -166 0 -36 23 -96 48 -123 26 -30
88 -57 126 -57 40 0 116 27 116 41 0 5 -13 3 -29 -5 -54 -28 -102 -29 -150 -4
-63 33 -84 66 -89 141 -3 52 0 67 20 96 50 73 127 98 202 67 22 -9 41 -14 44
-11 3 2 -11 12 -31 20 -44 18 -112 19 -152 1z"/>
<path d="M3524 290 c0 -102 2 -143 3 -92 2 50 2 134 0 185 -1 50 -3 9 -3 -93z"/>
<path d="M3700 448 c-72 -49 -98 -123 -75 -210 21 -81 81 -128 162 -128 164 1
224 243 84 337 -47 32 -125 32 -171 1z m169 -15 c84 -63 88 -225 7 -278 -128
-84 -271 22 -242 180 8 42 49 93 91 111 39 18 110 12 144 -13z"/>
<path d="M4036 463 c-3 -4 -6 -82 -6 -175 0 -217 18 -228 22 -12 l3 156 114
-156 c62 -86 117 -156 122 -156 5 0 9 80 9 177 0 220 -18 225 -22 6 l-3 -151
-116 158 c-64 88 -119 156 -123 153z"/>
<path d="M4414 295 c0 -99 2 -138 3 -87 2 51 2 132 0 180 -1 48 -3 6 -3 -93z"/>
<path d="M4544 446 c-21 -17 -28 -33 -28 -59 0 -47 22 -70 92 -98 76 -30 102
-54 102 -96 0 -69 -114 -92 -181 -36 -18 15 -30 21 -27 13 9 -27 69 -60 110
-60 77 0 125 44 114 106 -8 38 -37 61 -110 89 -75 27 -99 60 -80 110 8 20 56
45 86 45 13 0 41 -9 63 -20 49 -25 59 -18 14 9 -48 30 -119 28 -155 -3z"/>
<path d="M4780 460 c0 -6 27 -10 60 -10 l60 0 0 -165 c0 -103 4 -165 10 -165
6 0 10 62 10 165 l0 165 60 0 c33 0 60 4 60 10 0 6 -50 10 -130 10 -80 0 -130
-4 -130 -10z"/>
<path d="M5184 433 c-59 -141 -126 -315 -121 -319 3 -3 15 22 28 56 l24 61 89
-3 89 -3 20 -53 c11 -28 24 -52 28 -52 5 0 -1 24 -12 52 -50 128 -121 298
-125 298 -2 0 -11 -17 -20 -37z m61 -93 c21 -50 36 -93 33 -96 -3 -3 -39 -4
-81 -2 l-75 3 37 92 c20 51 39 93 42 93 4 0 23 -41 44 -90z"/>
<path d="M5872 453 c-68 -33 -111 -118 -97 -192 15 -83 92 -150 172 -151 37 0
113 28 113 41 0 5 -15 2 -32 -8 -70 -36 -164 -14 -210 49 -32 45 -33 153 -2
194 50 67 126 90 198 60 22 -9 41 -14 44 -11 3 2 -11 12 -31 20 -47 19 -113
19 -155 -2z"/>
<path d="M6142 288 c1 -101 4 -146 5 -100 l4 82 84 0 c93 0 115 -11 115 -59 0
-36 19 -91 31 -91 6 0 5 8 -1 19 -5 11 -10 35 -10 55 0 22 -9 45 -24 63 l-24
28 24 21 c47 45 44 112 -9 144 -25 16 -50 20 -114 20 l-83 0 2 -182z m198 142
c29 -29 27 -84 -5 -115 -22 -22 -32 -25 -105 -25 l-80 0 0 80 0 80 85 0 c72 0
88 -3 105 -20z"/>
<path d="M6482 290 l2 -185 6 165 5 165 70 -95 c39 -52 91 -123 115 -157 25
-34 48 -63 53 -63 4 0 6 80 5 178 l-2 177 -6 -165 -5 -165 -41 55 c-22 30 -73
100 -114 155 -40 55 -77 104 -81 110 -5 5 -8 -70 -7 -175z"/>
<path d="M7001 444 c-17 -14 -31 -31 -31 -37 0 -6 13 1 28 16 54 52 129 42
153 -20 16 -43 -6 -85 -96 -186 -46 -52 -81 -97 -78 -101 11 -10 201 -7 208 4
4 6 -29 10 -90 10 l-97 0 54 61 c91 103 118 147 118 191 0 82 -101 119 -169
62z"/>
<path d="M7305 359 c-44 -59 -81 -113 -83 -119 -2 -6 26 -10 77 -10 l81 0 0
-55 c0 -30 5 -55 10 -55 6 0 10 24 10 54 0 52 1 55 28 59 l27 4 -27 2 -28 1 0
109 c0 61 -3 112 -8 114 -4 3 -43 -44 -87 -104z m75 -24 l0 -95 -70 0 c-38 0
-70 2 -70 5 0 6 133 185 137 185 2 0 3 -43 3 -95z"/>
<path d="M7540 443 c-19 -13 -42 -28 -50 -33 -8 -5 -12 -11 -9 -14 3 -3 22 6
42 19 20 14 38 25 41 25 4 0 6 -72 6 -160 0 -100 4 -160 10 -160 12 0 14 336
3 343 -5 3 -24 -6 -43 -20z"/>
<path d="M7747 459 c-46 -27 -75 -142 -56 -229 28 -129 152 -162 203 -55 41
86 25 231 -30 274 -29 23 -87 28 -117 10z m115 -26 c56 -50 47 -261 -13 -293
-37 -20 -86 -12 -113 20 -40 48 -48 171 -15 244 25 54 97 69 141 29z"/>
<path d="M8021 444 c-17 -14 -31 -31 -31 -37 0 -7 8 -2 18 9 38 47 93 57 136
23 21 -16 26 -29 26 -62 0 -45 -17 -70 -127 -195 -29 -33 -50 -62 -46 -66 10
-10 203 -7 203 4 0 5 -41 11 -90 12 l-90 3 66 75 c37 41 75 89 85 105 64 103
-58 207 -150 129z"/>
<path d="M8260 460 c0 -5 40 -11 89 -12 l90 -3 -69 -160 c-58 -136 -75 -184
-56 -164 5 6 146 336 146 343 0 3 -45 6 -100 6 -57 0 -100 -4 -100 -10z"/>
<path d="M8572 454 c-74 -52 -81 -240 -12 -314 53 -57 143 -27 171 58 29 87 1
234 -49 261 -30 16 -84 13 -110 -5z m93 -6 c15 -7 33 -25 42 -41 35 -69 25
-207 -19 -254 -23 -25 -75 -31 -107 -13 -48 25 -69 189 -33 260 16 33 52 60
79 60 7 0 24 -5 38 -12z"/>
<path d="M8785 460 c-4 -6 27 -10 84 -10 50 0 91 -4 91 -9 0 -5 -29 -78 -65
-161 -59 -139 -75 -184 -59 -167 13 12 151 346 146 352 -10 9 -191 5 -197 -5z"/>
</g>
</svg>
