<?xml version="1.0" standalone="no"?>
<!DOCTYPE svg PUBLIC "-//W3C//DTD SVG 20010904//EN"
 "http://www.w3.org/TR/2001/REC-SVG-20010904/DTD/svg10.dtd">
<svg version="1.0" xmlns="http://www.w3.org/2000/svg"
 width="1525.000000pt" height="372.000000pt" viewBox="0 0 1525.000000 372.000000"
 preserveAspectRatio="xMidYMid meet">

<g transform="translate(0.000000,372.000000) scale(0.100000,-0.100000)"
fill="#000000" stroke="none">
<path d="M1760 2476 c0 -2 8 -10 18 -17 15 -13 16 -12 3 4 -13 16 -21 21 -21
13z"/>
<path d="M2065 1430 c3 -5 8 -10 11 -10 2 0 4 5 4 10 0 6 -5 10 -11 10 -5 0
-7 -4 -4 -10z"/>
<path d="M2305 1370 c3 -5 8 -10 11 -10 2 0 4 5 4 10 0 6 -5 10 -11 10 -5 0
-7 -4 -4 -10z"/>
<path d="M2550 1370 c-9 -6 -10 -10 -3 -10 6 0 15 5 18 10 8 12 4 12 -15 0z"/>
<path d="M10194 1105 c0 -137 2 -195 3 -128 2 67 2 179 0 250 -1 70 -3 16 -3
-122z"/>
<path d="M7915 1305 c-22 -8 -57 -32 -77 -53 -118 -126 6 -336 172 -293 25 7
52 19 60 27 13 13 10 13 -22 -1 -56 -23 -128 -20 -168 8 -97 66 -92 234 10
288 42 23 111 24 151 3 17 -8 33 -13 36 -10 8 7 -49 34 -87 40 -20 3 -52 0
-75 -9z"/>
<path d="M8373 1309 c-109 -32 -153 -191 -81 -292 68 -95 226 -80 277 27 53
109 3 236 -104 265 -46 12 -49 12 -92 0z m127 -32 c49 -32 73 -79 73 -142 0
-102 -59 -165 -153 -165 -119 0 -187 134 -127 250 39 77 138 105 207 57z"/>
<path d="M9213 1305 c-46 -20 -68 -58 -57 -98 8 -28 21 -38 96 -74 92 -45 107
-64 94 -116 -12 -51 -109 -63 -171 -22 -20 14 -35 20 -33 13 5 -18 87 -58 116
-58 58 0 112 48 112 99 0 32 -38 68 -97 91 -73 29 -103 56 -103 91 0 44 44 72
103 66 26 -2 55 -11 65 -21 26 -23 39 -20 17 4 -16 18 -73 40 -100 40 -5 -1
-24 -7 -42 -15z"/>
<path d="M10537 1305 c-50 -17 -85 -50 -108 -100 -25 -54 -24 -92 6 -151 33
-66 81 -98 149 -98 51 -1 116 19 116 35 0 4 -16 1 -35 -7 -51 -21 -121 -18
-162 7 -100 62 -94 243 11 293 42 20 112 20 146 1 32 -18 46 -19 31 -1 -10 12
-85 37 -108 36 -4 -1 -25 -7 -46 -15z"/>
<path d="M11680 1309 c-30 -12 -70 -48 -70 -63 0 -6 8 -1 18 10 75 93 207 26
157 -80 -9 -19 -44 -66 -78 -103 -33 -37 -70 -78 -81 -90 l-19 -23 114 2 114
2 -92 3 c-51 2 -93 8 -93 12 0 5 20 31 43 57 87 97 117 144 117 180 0 48 -15
73 -55 90 -39 16 -41 16 -75 3z"/>
<path d="M12403 1306 c-41 -19 -61 -50 -74 -120 -14 -76 3 -156 41 -199 23
-25 36 -32 68 -32 77 0 116 61 116 180 0 137 -64 209 -151 171z m86 -22 c34
-24 51 -74 51 -148 0 -105 -35 -166 -95 -166 -67 0 -105 63 -105 171 0 60 28
131 57 148 27 15 65 13 92 -5z"/>
<path d="M12680 1298 c-25 -13 -46 -31 -48 -40 -3 -13 5 -10 27 12 59 59 151
29 151 -51 0 -42 -20 -75 -96 -159 -100 -110 -102 -100 22 -98 l109 2 -94 5
-94 6 81 94 c83 95 101 133 88 186 -14 54 -83 75 -146 43z"/>
<path d="M13235 1311 c-98 -41 -116 -254 -27 -332 29 -26 41 -30 70 -25 70 11
105 71 105 181 0 85 -30 151 -77 170 -40 17 -43 17 -71 6z m90 -35 c27 -27 45
-83 45 -141 0 -22 -5 -57 -11 -79 -30 -109 -139 -117 -178 -13 -15 40 -14 152
3 191 27 66 96 86 141 42z"/>
<path d="M6312 1133 l2 -178 3 158 c2 86 7 157 11 157 4 0 54 -66 112 -146 58
-80 111 -150 118 -156 9 -8 12 26 10 168 l-2 179 -6 -163 -5 -164 -118 161
c-65 89 -120 161 -123 161 -2 0 -3 -80 -2 -177z"/>
<path d="M6682 1169 l3 -141 37 -33 c20 -19 48 -37 63 -41 38 -9 72 3 113 41
l37 33 3 141 c2 96 0 141 -7 141 -7 0 -11 -44 -11 -130 0 -79 -5 -139 -12
-155 -33 -72 -163 -72 -196 0 -7 16 -12 76 -12 155 0 86 -4 130 -11 130 -7 0
-9 -45 -7 -141z"/>
<path d="M7072 1303 l68 -4 3 -172 3 -172 2 172 2 172 68 4 c37 2 4 3 -73 3
-77 0 -110 -1 -73 -3z"/>
<path d="M7350 1135 c0 -110 4 -175 10 -175 6 0 10 33 10 80 l0 80 75 0 c67 0
79 -3 100 -25 17 -17 25 -35 25 -60 0 -40 15 -75 32 -75 7 0 7 4 0 13 -5 6
-13 36 -17 65 -5 37 -13 57 -30 70 l-22 17 28 26 c21 20 29 36 29 62 0 78 -31
97 -155 97 l-85 0 0 -175z m177 155 c54 -19 68 -81 29 -127 -22 -25 -31 -28
-105 -31 l-81 -4 0 86 0 86 64 0 c34 0 77 -5 93 -10z"/>
<path d="M7690 1135 c0 -110 4 -175 10 -175 6 0 10 65 10 175 0 110 -4 175
-10 175 -6 0 -10 -65 -10 -175z"/>
<path d="M8164 1135 c0 -99 2 -138 3 -87 2 51 2 132 0 180 -1 48 -3 6 -3 -93z"/>
<path d="M8670 1135 c0 -224 18 -238 22 -18 l3 158 104 -143 c57 -78 106 -140
109 -138 5 6 -220 315 -230 316 -5 0 -8 -79 -8 -175z"/>
<path d="M8919 1150 c-1 -88 -2 -165 -3 -172 -1 -6 5 -13 12 -15 9 -4 12 35
12 171 0 111 -4 176 -10 176 -6 0 -11 -61 -11 -160z"/>
<path d="M9054 1135 c0 -99 2 -138 3 -87 2 51 2 132 0 180 -1 48 -3 6 -3 -93z"/>
<path d="M9478 1303 l62 -4 0 -169 c0 -107 4 -170 10 -170 6 0 10 63 10 170
l0 169 63 4 c34 2 1 3 -73 3 -74 0 -107 -1 -72 -3z"/>
<path d="M9837 1303 c-8 -13 -137 -332 -137 -338 0 -20 21 13 35 55 l17 51 90
-3 90 -3 20 -50 c21 -54 25 -61 33 -54 4 5 -126 334 -137 345 -3 3 -8 2 -11
-3z m47 -117 c20 -50 36 -94 36 -98 0 -4 -36 -8 -80 -8 -44 0 -80 1 -80 3 0 3
34 90 66 166 8 19 16 32 18 30 2 -2 20 -44 40 -93z"/>
<path d="M10782 1133 c1 -98 4 -140 5 -94 l4 83 84 -3 c47 -2 89 -9 96 -16 6
-6 16 -35 20 -64 5 -29 16 -60 25 -68 15 -15 15 -14 5 6 -6 12 -11 36 -11 53
0 34 -23 86 -41 92 -7 2 2 17 20 35 41 42 42 84 2 124 -28 28 -33 29 -120 29
l-91 0 2 -177z m198 142 c20 -18 27 -66 14 -100 -11 -28 -60 -45 -134 -45
l-70 0 0 86 0 87 85 -5 c63 -3 89 -9 105 -23z"/>
<path d="M11122 1133 l2 -178 3 158 c2 86 7 157 11 157 4 -1 57 -70 117 -155
61 -85 113 -154 118 -154 4 -1 6 79 5 177 l-2 177 -3 -157 c-2 -87 -7 -158
-11 -158 -4 0 -59 70 -121 155 -62 85 -115 155 -117 155 -2 0 -3 -80 -2 -177z"/>
<path d="M11948 1207 c-107 -144 -107 -137 -9 -137 l81 0 0 -55 c0 -30 5 -55
10 -55 6 0 10 25 10 55 0 48 2 55 20 55 11 0 20 5 20 10 0 6 -9 10 -20 10 -19
0 -20 7 -20 110 0 61 -4 110 -8 110 -4 0 -42 -46 -84 -103z m69 -114 c-3 -2
-34 -3 -70 -1 l-66 3 67 89 67 90 3 -88 c2 -49 1 -90 -1 -93z"/>
<path d="M12167 1279 c-53 -36 -57 -53 -4 -20 19 11 37 21 41 21 3 0 6 -72 6
-160 0 -100 4 -160 10 -160 6 0 10 65 10 175 0 96 -3 175 -7 175 -5 0 -30 -14
-56 -31z"/>
<path d="M12900 1300 c0 -5 40 -11 89 -12 l88 -3 -68 -159 c-38 -88 -67 -162
-64 -164 3 -3 6 -3 8 -1 3 4 131 301 143 333 5 14 -7 16 -95 16 -58 0 -101 -4
-101 -10z"/>
<path d="M13425 1300 c3 -5 44 -10 91 -10 46 0 84 -4 84 -8 0 -5 -27 -70 -60
-146 -65 -150 -78 -187 -62 -171 8 8 50 103 139 313 l13 32 -105 0 c-68 0
-104 -4 -100 -10z"/>
<path d="M1980 1066 c0 -2 8 -10 18 -17 15 -13 16 -12 3 4 -13 16 -21 21 -21
13z"/>
</g>
</svg>
